<mxfile host="app.diagrams.net" modified="2023-11-13T11:08:37.261Z" agent="Mozilla/5.0 (Windows NT 10.0; Win64; x64; rv:109.0) Gecko/20100101 Firefox/119.0" etag="uv70PB-sO-9uCZeBl6EI" version="22.1.0" type="device">
  <diagram name="Seite-1" id="P5fkWL3torKToHgNwPM1">
    <mxGraphModel dx="1242" dy="659" grid="1" gridSize="10" guides="1" tooltips="1" connect="1" arrows="1" fold="1" page="1" pageScale="1" pageWidth="827" pageHeight="1169" math="0" shadow="0">
      <root>
        <mxCell id="0" />
        <mxCell id="1" parent="0" />
        <mxCell id="3KR9EK0OYAiCwbHEJhYZ-10" value="" style="rounded=0;orthogonalLoop=1;jettySize=auto;html=1;exitX=0.5;exitY=1;exitDx=0;exitDy=0;entryX=0.5;entryY=0;entryDx=0;entryDy=0;endArrow=none;endFill=0;verticalAlign=bottom;" parent="1" source="3KR9EK0OYAiCwbHEJhYZ-1" target="3KR9EK0OYAiCwbHEJhYZ-3" edge="1">
          <mxGeometry relative="1" as="geometry" />
        </mxCell>
        <mxCell id="1t_5nnuv7Yi2ZH-ySU_2-5" value="unterrichtet" style="edgeLabel;html=1;align=center;verticalAlign=middle;resizable=0;points=[];rotation=292;labelBackgroundColor=none;" parent="3KR9EK0OYAiCwbHEJhYZ-10" vertex="1" connectable="0">
          <mxGeometry x="-0.24" y="-1" relative="1" as="geometry">
            <mxPoint x="-12" y="6" as="offset" />
          </mxGeometry>
        </mxCell>
        <mxCell id="3KR9EK0OYAiCwbHEJhYZ-1" value="&lt;u&gt;weber : Lehrer&lt;/u&gt;" style="rounded=0;whiteSpace=wrap;html=1;" parent="1" vertex="1">
          <mxGeometry x="200" y="120" width="120" height="40" as="geometry" />
        </mxCell>
        <mxCell id="3KR9EK0OYAiCwbHEJhYZ-2" value="&lt;u&gt;m端ller : Lehrer&lt;/u&gt;" style="rounded=0;whiteSpace=wrap;html=1;" parent="1" vertex="1">
          <mxGeometry x="440" y="120" width="120" height="40" as="geometry" />
        </mxCell>
        <mxCell id="3KR9EK0OYAiCwbHEJhYZ-3" value="&lt;u&gt;sport : Fach&lt;/u&gt;" style="rounded=0;whiteSpace=wrap;html=1;" parent="1" vertex="1">
          <mxGeometry x="160" y="261" width="120" height="40" as="geometry" />
        </mxCell>
        <mxCell id="3KR9EK0OYAiCwbHEJhYZ-4" value="&lt;u&gt;biologie : Fach&lt;/u&gt;" style="rounded=0;whiteSpace=wrap;html=1;" parent="1" vertex="1">
          <mxGeometry x="320" y="261" width="120" height="40" as="geometry" />
        </mxCell>
        <mxCell id="3KR9EK0OYAiCwbHEJhYZ-5" value="&lt;u&gt;mathe : Fach&lt;/u&gt;" style="rounded=0;whiteSpace=wrap;html=1;" parent="1" vertex="1">
          <mxGeometry x="480" y="261" width="120" height="40" as="geometry" />
        </mxCell>
        <mxCell id="3KR9EK0OYAiCwbHEJhYZ-6" value="&lt;u&gt;nadine : Sch端ler&lt;br&gt;&lt;/u&gt;" style="rounded=0;whiteSpace=wrap;html=1;" parent="1" vertex="1">
          <mxGeometry x="160" y="400" width="120" height="40" as="geometry" />
        </mxCell>
        <mxCell id="3KR9EK0OYAiCwbHEJhYZ-7" value="&lt;div&gt;&lt;u&gt;max : Sch端ler&lt;/u&gt;&lt;/div&gt;" style="rounded=0;whiteSpace=wrap;html=1;" parent="1" vertex="1">
          <mxGeometry x="320" y="400" width="120" height="40" as="geometry" />
        </mxCell>
        <mxCell id="3KR9EK0OYAiCwbHEJhYZ-8" value="&lt;u&gt;klaus : Sch端ler&lt;br&gt;&lt;/u&gt;" style="rounded=0;whiteSpace=wrap;html=1;" parent="1" vertex="1">
          <mxGeometry x="480" y="400" width="120" height="40" as="geometry" />
        </mxCell>
        <mxCell id="3KR9EK0OYAiCwbHEJhYZ-11" value="" style="endArrow=none;html=1;rounded=0;entryX=0.25;entryY=0;entryDx=0;entryDy=0;exitX=0.75;exitY=1;exitDx=0;exitDy=0;endFill=0;verticalAlign=bottom;" parent="1" source="3KR9EK0OYAiCwbHEJhYZ-1" target="3KR9EK0OYAiCwbHEJhYZ-4" edge="1">
          <mxGeometry width="50" height="50" relative="1" as="geometry">
            <mxPoint x="390" y="320" as="sourcePoint" />
            <mxPoint x="440" y="270" as="targetPoint" />
          </mxGeometry>
        </mxCell>
        <mxCell id="1t_5nnuv7Yi2ZH-ySU_2-7" value="unterrichtet" style="edgeLabel;html=1;align=center;verticalAlign=middle;resizable=0;points=[];rotation=59;labelBackgroundColor=none;" parent="3KR9EK0OYAiCwbHEJhYZ-11" vertex="1" connectable="0">
          <mxGeometry x="-0.2816" y="-2" relative="1" as="geometry">
            <mxPoint x="18" y="8" as="offset" />
          </mxGeometry>
        </mxCell>
        <mxCell id="3KR9EK0OYAiCwbHEJhYZ-12" value="" style="endArrow=none;html=1;rounded=0;entryX=0.75;entryY=0;entryDx=0;entryDy=0;exitX=0.25;exitY=1;exitDx=0;exitDy=0;endFill=0;verticalAlign=bottom;" parent="1" source="3KR9EK0OYAiCwbHEJhYZ-2" target="3KR9EK0OYAiCwbHEJhYZ-4" edge="1">
          <mxGeometry width="50" height="50" relative="1" as="geometry">
            <mxPoint x="349" y="170" as="sourcePoint" />
            <mxPoint x="409" y="230" as="targetPoint" />
          </mxGeometry>
        </mxCell>
        <mxCell id="1t_5nnuv7Yi2ZH-ySU_2-9" value="unterrichtet" style="edgeLabel;html=1;align=center;verticalAlign=middle;resizable=0;points=[];rotation=-60;labelBackgroundColor=none;" parent="3KR9EK0OYAiCwbHEJhYZ-12" vertex="1" connectable="0">
          <mxGeometry x="-0.1727" y="1" relative="1" as="geometry">
            <mxPoint x="-15" y="4" as="offset" />
          </mxGeometry>
        </mxCell>
        <mxCell id="3KR9EK0OYAiCwbHEJhYZ-13" value="" style="endArrow=none;html=1;rounded=0;entryX=0.5;entryY=0;entryDx=0;entryDy=0;exitX=0.75;exitY=1;exitDx=0;exitDy=0;endFill=0;verticalAlign=bottom;" parent="1" source="3KR9EK0OYAiCwbHEJhYZ-2" target="3KR9EK0OYAiCwbHEJhYZ-5" edge="1">
          <mxGeometry x="-0.0016" width="50" height="50" relative="1" as="geometry">
            <mxPoint x="310" y="180" as="sourcePoint" />
            <mxPoint x="370" y="240" as="targetPoint" />
            <mxPoint as="offset" />
          </mxGeometry>
        </mxCell>
        <mxCell id="1t_5nnuv7Yi2ZH-ySU_2-12" value="unterrichtet" style="edgeLabel;html=1;align=center;verticalAlign=middle;resizable=0;points=[];rotation=84;labelBackgroundColor=none;" parent="3KR9EK0OYAiCwbHEJhYZ-13" vertex="1" connectable="0">
          <mxGeometry x="-0.2418" relative="1" as="geometry">
            <mxPoint x="10" y="2" as="offset" />
          </mxGeometry>
        </mxCell>
        <mxCell id="3KR9EK0OYAiCwbHEJhYZ-14" value="" style="endArrow=none;html=1;rounded=0;exitX=0.5;exitY=0;exitDx=0;exitDy=0;entryX=0.5;entryY=1;entryDx=0;entryDy=0;verticalAlign=top;endFill=0;" parent="1" source="3KR9EK0OYAiCwbHEJhYZ-6" target="3KR9EK0OYAiCwbHEJhYZ-3" edge="1">
          <mxGeometry width="50" height="50" relative="1" as="geometry">
            <mxPoint x="390" y="340" as="sourcePoint" />
            <mxPoint x="440" y="290" as="targetPoint" />
          </mxGeometry>
        </mxCell>
        <mxCell id="1t_5nnuv7Yi2ZH-ySU_2-15" value="nimmt teil" style="edgeLabel;html=1;align=center;verticalAlign=middle;resizable=0;points=[];rotation=-90;labelBackgroundColor=none;" parent="3KR9EK0OYAiCwbHEJhYZ-14" vertex="1" connectable="0">
          <mxGeometry x="-0.0725" y="-2" relative="1" as="geometry">
            <mxPoint x="-13" y="11" as="offset" />
          </mxGeometry>
        </mxCell>
        <mxCell id="3KR9EK0OYAiCwbHEJhYZ-15" value="" style="endArrow=none;html=1;rounded=0;exitX=0.5;exitY=0;exitDx=0;exitDy=0;entryX=0.5;entryY=1;entryDx=0;entryDy=0;verticalAlign=top;endFill=0;" parent="1" source="3KR9EK0OYAiCwbHEJhYZ-7" target="3KR9EK0OYAiCwbHEJhYZ-4" edge="1">
          <mxGeometry width="50" height="50" relative="1" as="geometry">
            <mxPoint x="230" y="350" as="sourcePoint" />
            <mxPoint x="230" y="290" as="targetPoint" />
          </mxGeometry>
        </mxCell>
        <mxCell id="1t_5nnuv7Yi2ZH-ySU_2-17" value="nimmt teil" style="edgeLabel;html=1;align=center;verticalAlign=middle;resizable=0;points=[];rotation=-90;labelBackgroundColor=none;" parent="3KR9EK0OYAiCwbHEJhYZ-15" vertex="1" connectable="0">
          <mxGeometry x="0.0505" relative="1" as="geometry">
            <mxPoint x="-9" y="17" as="offset" />
          </mxGeometry>
        </mxCell>
        <mxCell id="3KR9EK0OYAiCwbHEJhYZ-16" value="" style="endArrow=none;html=1;rounded=0;exitX=0.25;exitY=0;exitDx=0;exitDy=0;endFill=0;verticalAlign=top;horizontal=1;" parent="1" source="3KR9EK0OYAiCwbHEJhYZ-7" target="3KR9EK0OYAiCwbHEJhYZ-3" edge="1">
          <mxGeometry width="50" height="50" relative="1" as="geometry">
            <mxPoint x="390" y="350" as="sourcePoint" />
            <mxPoint x="390" y="290" as="targetPoint" />
          </mxGeometry>
        </mxCell>
        <mxCell id="1t_5nnuv7Yi2ZH-ySU_2-16" value="nimmt teil" style="edgeLabel;html=1;align=center;verticalAlign=middle;resizable=0;points=[];rotation=42;labelBackgroundColor=none;" parent="3KR9EK0OYAiCwbHEJhYZ-16" vertex="1" connectable="0">
          <mxGeometry x="-0.0322" relative="1" as="geometry">
            <mxPoint x="10" y="-3" as="offset" />
          </mxGeometry>
        </mxCell>
        <mxCell id="3KR9EK0OYAiCwbHEJhYZ-17" value="" style="endArrow=none;html=1;rounded=0;exitX=0.25;exitY=0;exitDx=0;exitDy=0;entryX=0.75;entryY=1;entryDx=0;entryDy=0;verticalAlign=top;endFill=0;" parent="1" source="3KR9EK0OYAiCwbHEJhYZ-8" target="3KR9EK0OYAiCwbHEJhYZ-4" edge="1">
          <mxGeometry width="50" height="50" relative="1" as="geometry">
            <mxPoint x="400" y="360" as="sourcePoint" />
            <mxPoint x="400" y="300" as="targetPoint" />
          </mxGeometry>
        </mxCell>
        <mxCell id="1t_5nnuv7Yi2ZH-ySU_2-18" value="nimmt teil" style="edgeLabel;html=1;align=center;verticalAlign=middle;resizable=0;points=[];rotation=44;labelBackgroundColor=none;" parent="3KR9EK0OYAiCwbHEJhYZ-17" vertex="1" connectable="0">
          <mxGeometry x="-0.1066" y="-2" relative="1" as="geometry">
            <mxPoint x="5" y="-5" as="offset" />
          </mxGeometry>
        </mxCell>
        <mxCell id="3KR9EK0OYAiCwbHEJhYZ-18" value="" style="endArrow=none;html=1;rounded=0;exitX=0.5;exitY=0;exitDx=0;exitDy=0;entryX=0.5;entryY=1;entryDx=0;entryDy=0;verticalAlign=top;endFill=0;" parent="1" source="3KR9EK0OYAiCwbHEJhYZ-8" target="3KR9EK0OYAiCwbHEJhYZ-5" edge="1">
          <mxGeometry width="50" height="50" relative="1" as="geometry">
            <mxPoint x="410" y="370" as="sourcePoint" />
            <mxPoint x="410" y="310" as="targetPoint" />
          </mxGeometry>
        </mxCell>
        <mxCell id="1t_5nnuv7Yi2ZH-ySU_2-19" value="nimmt teil" style="edgeLabel;html=1;align=center;verticalAlign=middle;resizable=0;points=[];rotation=-90;labelBackgroundColor=none;" parent="3KR9EK0OYAiCwbHEJhYZ-18" vertex="1" connectable="0">
          <mxGeometry x="-0.1954" y="1" relative="1" as="geometry">
            <mxPoint x="-9" y="2" as="offset" />
          </mxGeometry>
        </mxCell>
        <mxCell id="ImkCwkXyHWfbxxSPLsoZ-3" value="^" style="triangle;whiteSpace=wrap;html=1;dashed=0;direction=north;fillColor=#000000;aspect=fixed;" parent="1" vertex="1">
          <mxGeometry x="206" y="318" width="7.5" height="15" as="geometry" />
        </mxCell>
        <mxCell id="ImkCwkXyHWfbxxSPLsoZ-5" value="" style="triangle;whiteSpace=wrap;html=1;dashed=0;direction=north;fillColor=#000000;aspect=fixed;rotation=311;" parent="1" vertex="1">
          <mxGeometry x="275" y="318" width="7.5" height="15" as="geometry" />
        </mxCell>
        <mxCell id="ImkCwkXyHWfbxxSPLsoZ-7" value="" style="triangle;whiteSpace=wrap;html=1;dashed=0;direction=north;fillColor=#000000;aspect=fixed;rotation=311;" parent="1" vertex="1">
          <mxGeometry x="441" y="318" width="7.5" height="15" as="geometry" />
        </mxCell>
        <mxCell id="ImkCwkXyHWfbxxSPLsoZ-8" value="" style="triangle;whiteSpace=wrap;html=1;dashed=0;direction=north;fillColor=#000000;aspect=fixed;" parent="1" vertex="1">
          <mxGeometry x="368" y="318" width="7.5" height="15" as="geometry" />
        </mxCell>
        <mxCell id="ImkCwkXyHWfbxxSPLsoZ-9" value="" style="triangle;whiteSpace=wrap;html=1;dashed=0;direction=north;fillColor=#000000;aspect=fixed;" parent="1" vertex="1">
          <mxGeometry x="527" y="318" width="7.5" height="15" as="geometry" />
        </mxCell>
        <mxCell id="ImkCwkXyHWfbxxSPLsoZ-10" value="" style="triangle;whiteSpace=wrap;html=1;dashed=0;direction=north;fillColor=#000000;aspect=fixed;rotation=206;" parent="1" vertex="1">
          <mxGeometry x="214.5" y="233" width="7.5" height="15" as="geometry" />
        </mxCell>
        <mxCell id="ImkCwkXyHWfbxxSPLsoZ-11" value="" style="triangle;whiteSpace=wrap;html=1;dashed=0;direction=north;fillColor=#000000;aspect=fixed;rotation=215;" parent="1" vertex="1">
          <mxGeometry x="408" y="233" width="7.5" height="15" as="geometry" />
        </mxCell>
        <mxCell id="ImkCwkXyHWfbxxSPLsoZ-12" value="" style="triangle;whiteSpace=wrap;html=1;dashed=0;direction=north;fillColor=#000000;aspect=fixed;rotation=146;" parent="1" vertex="1">
          <mxGeometry x="344" y="233" width="7.5" height="15" as="geometry" />
        </mxCell>
        <mxCell id="ImkCwkXyHWfbxxSPLsoZ-13" value="" style="triangle;whiteSpace=wrap;html=1;dashed=0;direction=north;fillColor=#000000;aspect=fixed;rotation=171;" parent="1" vertex="1">
          <mxGeometry x="543" y="233" width="7.5" height="15" as="geometry" />
        </mxCell>
      </root>
    </mxGraphModel>
  </diagram>
</mxfile>
